<svg xmlns="http://www.w3.org/2000/svg" version="1.1" xmlns:xlink="http://www.w3.org/1999/xlink"
     xmlns:svgjs="http://svgjs.dev/svgjs" width="100" height="100" viewBox="0 0 100 100">
    <g transform="scale(0.6439943085 0.6439943085)">
        <circle cx="77.6404377211" cy="77.6404377211" r="77.6404377211" fill="#046380"></circle>
        <g id="icon-0">
            <svg viewBox="0 0 155.28087544213292 155.28087544213292"
                 height="155.28087544213292" width="155.28087544213292">
                <g>
                    <path d="M0 77.64c0-42.88 34.761-77.64 77.64-77.64 42.88 0 77.64 34.761 77.641 77.64 0 42.88-34.761 77.64-77.641 77.641-42.88 0-77.64-34.761-77.64-77.641zM77.64 149.53c39.703 0 71.889-32.186 71.89-71.89 0-39.703-32.186-71.889-71.89-71.889-39.703 0-71.889 32.186-71.889 71.889 0 39.703 32.186 71.889 71.889 71.89z"
                          data-fill-palette-color="accent" fill="#ffffff"
                          stroke="transparent"></path>
                </g>
                <g transform="matrix(1,0,0,1,32.71005931421927,38.05646313378224)">
                    <svg viewBox="0 0 89.86075681369438 79.16794917456845"
                         height="79.16794917456845" width="89.86075681369438">
                        <g>
                            <svg xmlns="http://www.w3.org/2000/svg" xmlns:xlink="http://www.w3.org/1999/xlink"
                                 version="1.1"
                                 x="0" y="0" viewBox="6.300000190734863 11.5 87.39999389648438 77"
                                 style="enable-background:new 0 0 100 100;" xml:space="preserve"
                                 height="79.16794917456845"
                                 width="89.86075681369438" class="icon-a-0" data-fill-palette-color="accent" id="a-0">
                                <path d="M72.3 12.3L72.3 12.3 72.3 12.3l-0.4-0.8H28.2L6.3 50l21.8 38.5h43.7L93.7 50 72.3 12.3zM33.3 25.3L9.9 47.7l18.6-32.8L33.3 25.3zM70.7 14.8l6.4 35.7L36.9 25.8 70.7 14.8zM35.5 27.3l41 25.2-41 23.3V27.3zM77 54.5l-7.2 30.8-32.6-8.1L77 54.5zM33.5 75L9.9 50.5l23.6-22.7V75zM33.2 77.6l-4.6 7.7L11.5 55.1 33.2 77.6zM35 78.6l31.4 7.9H30.2L35 78.6zM79.3 53.3l11.6-2.5L72.1 84 79.3 53.3zM90.7 48.9l-11.4 2.5-5.9-33.1L90.7 48.9zM35 24.3l-5-10.8h38.2L35 24.3z"
                                      fill="#ffffff"
                                      data-fill-palette-color="accent"></path>
                            </svg>
                        </g>
                    </svg>
                </g>
            </svg>
        </g>
    </g>
</svg>
