<svg xmlns="http://www.w3.org/2000/svg" version="1.1" width="1530" height="400" viewBox="0 0 1530 400">
    <rect width="2000" height="400" fill="transparent"></rect>
    <g transform="matrix(0.75,0,0,0.75,0,0)">
        <svg viewBox="0 0 396 106" data-background-color="#046380" preserveAspectRatio="xMidYMid meet" height="535"
             width="2000" xmlns="http://www.w3.org/2000/svg">
            <g id="tight-bounds" transform="matrix(1,0,0,1,0.2400000000000091,0.13765835863404163)">
                <svg viewBox="0 0 395.52 105.72459847621313" height="105.72459847621313" width="395.52">
                    <g>
                        <svg viewBox="0 0 580.9120369342476 155.28087544213292" height="105.72459847621313"
                             width="395.52">
                            <g transform="matrix(1,0,0,1,185.3920369342476,45.7532896288052)">
                                <svg viewBox="0 0 395.52 63.77429618452253" height="63.77429618452253" width="395.52">
                                    <g>
                                        <svg viewBox="0 0 395.52 63.77429618452253" height="63.77429618452253"
                                             width="395.52">
                                            <g>
                                                <svg viewBox="0 0 395.52 63.77429618452253" height="63.77429618452253"
                                                     width="395.52">
                                                    <g transform="matrix(1,0,0,1,0,0)">
                                                        <svg width="395.52"
                                                             viewBox="1.1700000762939453 -36.040000915527344 228.5800018310547 36.53000259399414"
                                                             height="63.77429618452253" data-palette-color="#ffffff">
                                                            <g class="undefined-text-0"
                                                               data-fill-palette-color="primary" id="text-0">
                                                                <path d="M24.78-35.55L31.49-8.79 36.96-35.55 43.09-35.55 34.89 0 28.98 0 22.22-25.95 15.31 0 9.38 0 1.17-35.55 7.3-35.55 12.82-8.84 19.6-35.55 24.78-35.55ZM68.38-20.75L68.38-15.87 53.78-15.87 53.78-4.93 70.85-4.93 70.85 0 47.6 0 47.6-35.55 70.68-35.55 70.68-30.57 53.78-30.57 53.78-20.75 68.38-20.75ZM88.84 0L75.87 0 75.87-35.55 88.06-35.55Q94.09-35.55 97.24-33.13 100.39-30.71 100.39-25.93L100.39-25.93Q100.39-23.49 99.07-21.53 97.75-19.58 95.21-18.51L95.21-18.51Q98.09-17.72 99.67-15.56 101.24-13.4 101.24-10.38L101.24-10.38Q101.24-5.37 98.03-2.69 94.82 0 88.84 0L88.84 0ZM89.42-16.04L82.05-16.04 82.05-4.93 88.91-4.93Q91.82-4.93 93.45-6.37 95.09-7.81 95.09-10.38L95.09-10.38Q95.09-15.92 89.42-16.04L89.42-16.04ZM82.05-30.57L82.05-20.58 88.11-20.58Q90.99-20.58 92.61-21.89 94.23-23.19 94.23-25.59L94.23-25.59Q94.23-28.22 92.73-29.39 91.23-30.57 88.06-30.57L88.06-30.57 82.05-30.57ZM125.99-9.16L125.99-9.16Q125.99-11.5 124.35-12.77 122.7-14.04 118.4-15.33 114.1-16.63 111.56-18.21L111.56-18.21Q106.71-21.26 106.71-26.17L106.71-26.17Q106.71-30.47 110.21-33.25 113.71-36.04 119.3-36.04L119.3-36.04Q123.01-36.04 125.92-34.67 128.83-33.3 130.49-30.77 132.15-28.25 132.15-25.17L132.15-25.17 125.99-25.17Q125.99-27.95 124.25-29.53 122.5-31.1 119.26-31.1L119.26-31.1Q116.23-31.1 114.56-29.81 112.88-28.52 112.88-26.2L112.88-26.2Q112.88-24.24 114.69-22.94 116.5-21.63 120.65-20.4 124.8-19.17 127.31-17.59 129.83-16.02 131-13.98 132.17-11.94 132.17-9.2L132.17-9.2Q132.17-4.76 128.76-2.14 125.36 0.49 119.52 0.49L119.52 0.49Q115.67 0.49 112.43-0.94 109.2-2.37 107.4-4.88 105.61-7.4 105.61-10.74L105.61-10.74 111.78-10.74Q111.78-7.71 113.79-6.05 115.79-4.39 119.52-4.39L119.52-4.39Q122.75-4.39 124.37-5.7 125.99-7.01 125.99-9.16ZM151.11-13.21L143.76-13.21 143.76 0 137.59 0 137.59-35.55 151.19-35.55Q157.14-35.55 160.65-32.45 164.15-29.35 164.15-24.24L164.15-24.24Q164.15-19.02 160.72-16.11 157.29-13.21 151.11-13.21L151.11-13.21ZM143.76-30.57L143.76-18.16 151.19-18.16Q154.48-18.16 156.22-19.71 157.95-21.26 157.95-24.19L157.95-24.19Q157.95-27.08 156.19-28.8 154.43-30.52 151.36-30.57L151.36-30.57 143.76-30.57ZM197.91-18.82L197.91-16.85Q197.91-11.62 196.11-7.68 194.3-3.74 190.94-1.62 187.59 0.49 183.22 0.49L183.22 0.49Q178.89 0.49 175.51-1.62 172.13-3.74 170.29-7.64 168.44-11.55 168.42-16.65L168.42-16.65 168.42-18.65Q168.42-23.85 170.26-27.83 172.11-31.81 175.46-33.92 178.82-36.04 183.17-36.04 187.51-36.04 190.87-33.95 194.23-31.86 196.06-27.94 197.89-24.02 197.91-18.82L197.91-18.82ZM191.74-16.85L191.74-18.7Q191.74-24.61 189.5-27.76 187.27-30.91 183.17-30.91L183.17-30.91Q179.16-30.91 176.9-27.77 174.65-24.63 174.6-18.9L174.6-18.9 174.6-16.85Q174.6-10.99 176.88-7.79 179.16-4.59 183.22-4.59L183.22-4.59Q187.32-4.59 189.53-7.71 191.74-10.84 191.74-16.85L191.74-16.85ZM229.75-35.55L229.75-30.57 218.66-30.57 218.66 0 212.53 0 212.53-30.57 201.55-30.57 201.55-35.55 229.75-35.55Z"
                                                                      fill="#046380"
                                                                      data-fill-palette-color="primary"></path>
                                                            </g>
                                                        </svg>
                                                    </g>
                                                </svg>
                                            </g>
                                        </svg>
                                    </g>
                                </svg>
                            </g>
                            <g>
                                <svg viewBox="0 0 155.28087544213292 155.28087544213292" height="155.28087544213292"
                                     width="155.28087544213292">
                                    <g>
                                        <svg></svg>
                                    </g>
                                    <g id="icon-0">
                                        <svg viewBox="0 0 155.28087544213292 155.28087544213292"
                                             height="155.28087544213292" width="155.28087544213292">
                                            <g>
                                                <path d="M0 77.64c0-42.88 34.761-77.64 77.64-77.64 42.88 0 77.64 34.761 77.641 77.64 0 42.88-34.761 77.64-77.641 77.641-42.88 0-77.64-34.761-77.64-77.641zM77.64 149.53c39.703 0 71.889-32.186 71.89-71.89 0-39.703-32.186-71.889-71.89-71.889-39.703 0-71.889 32.186-71.889 71.889 0 39.703 32.186 71.889 71.889 71.89z"
                                                      data-fill-palette-color="accent" fill="#046380"
                                                      stroke="transparent"></path>
                                            </g>
                                            <g transform="matrix(1,0,0,1,32.71005931421927,38.05646313378224)">
                                                <svg viewBox="0 0 89.86075681369438 79.16794917456845"
                                                     height="79.16794917456845" width="89.86075681369438">
                                                    <g>
                                                        <svg xmlns="http://www.w3.org/2000/svg"
                                                             xmlns:xlink="http://www.w3.org/1999/xlink" version="1.1"
                                                             x="0" y="0"
                                                             viewBox="6.300000190734863 11.5 87.39999389648438 77"
                                                             style="enable-background:new 0 0 100 100;"
                                                             xml:space="preserve" height="79.16794917456845"
                                                             width="89.86075681369438" class="icon-a-0"
                                                             data-fill-palette-color="accent" id="a-0">
                                                            <path d="M72.3 12.3L72.3 12.3 72.3 12.3l-0.4-0.8H28.2L6.3 50l21.8 38.5h43.7L93.7 50 72.3 12.3zM33.3 25.3L9.9 47.7l18.6-32.8L33.3 25.3zM70.7 14.8l6.4 35.7L36.9 25.8 70.7 14.8zM35.5 27.3l41 25.2-41 23.3V27.3zM77 54.5l-7.2 30.8-32.6-8.1L77 54.5zM33.5 75L9.9 50.5l23.6-22.7V75zM33.2 77.6l-4.6 7.7L11.5 55.1 33.2 77.6zM35 78.6l31.4 7.9H30.2L35 78.6zM79.3 53.3l11.6-2.5L72.1 84 79.3 53.3zM90.7 48.9l-11.4 2.5-5.9-33.1L90.7 48.9zM35 24.3l-5-10.8h38.2L35 24.3z"
                                                                  fill="#046380"
                                                                  data-fill-palette-color="accent">
                                                            </path>
                                                        </svg>
                                                    </g>
                                                </svg>
                                            </g>
                                        </svg>
                                    </g>
                                </svg>
                            </g>
                        </svg>
                    </g>
                    <defs></defs>
                </svg>
                <rect width="395.52" height="105.72459847621313" fill="none" stroke="none" visibility="hidden"></rect>
            </g>
        </svg>
    </g>
</svg>
